<?xml version="1.0" encoding="utf-8" ?><svg xmlns="http://www.w3.org/2000/svg" xmlns:xlink="http://www.w3.org/1999/xlink" width="4096" height="4096" viewBox="0 0 4096 4096"><defs><linearGradient id="gradient_0" gradientUnits="userSpaceOnUse" x1="2161.9111" y1="2227.8923" x2="2095.8154" y2="1541.9846"><stop offset="0" stop-color="#6C133F"/><stop offset="1" stop-color="#C82F6B"/></linearGradient></defs><path fill="url(#gradient_0)" d="M2467.46 1439.76C2486.03 1457.26 2504.97 1513.3 2515.92 1538.44C2518.83 1545.14 2522.79 1561.71 2525.13 1565.96C2556.18 1664.09 2549.91 1753.36 2530.3 1851.69C2554.56 1856.61 2597.2 1857.38 2618.03 1860.18C2649.37 1864.4 2868.71 1893.53 2879.58 1907.13C2879.12 1908.55 2830.44 1952.28 2823.22 1959.76C2806.19 1977.35 2789.72 1995.48 2773.84 2014.12C2732.49 2063.24 2666.95 2149.59 2617.32 2194.5C2612.2 2199.13 2559.92 2183.01 2547.02 2180.74C2466 2166.23 2383.52 2161.57 2301.38 2166.86C2281.46 2169.32 2239.85 2194 2217.57 2202.95C2187.51 2215.03 2157.45 2220.34 2128 2230.63C2082.06 2246.7 2024.7 2239.21 1982.04 2251.03C1897.1 2253.02 1816.13 2248.75 1731.46 2245.49L1728.14 2247.38C1691.12 2239.54 1566.05 2277.46 1531.97 2301.44C1521.68 2308.68 1499.07 2326.57 1489.7 2331.45C1456.18 2351.89 1435.2 2381.07 1408.48 2405.64C1403.24 2406.54 1403.47 2407.02 1399.38 2410.64L1395.57 2410.09C1395.05 2405.01 1400.5 2399.13 1397.86 2395.02C1377.48 2363.28 1397.56 2349.95 1396.13 2316.76C1396.71 2303.78 1387.84 2296.06 1384.16 2285.11C1377.84 2266.31 1381.95 2227.25 1364.59 2214.98L1361.51 2216.03L1359.24 2222.83C1355.8 2207.38 1363.21 2187.38 1359.5 2177.48L1354.98 2189.8L1353.48 2189.37C1351.67 2167.82 1356.09 2145.18 1354.64 2123.39C1353.29 2103.23 1359.26 2114.44 1360.67 2108.24C1363.88 2094.11 1377.12 2062.64 1382.48 2050.27L1381.78 2046.44C1384.33 2041.41 1385.67 2040.68 1389.54 2036.51C1387.56 2034.77 1385.97 2033.5 1383.91 2031.87C1382.78 2022.7 1382.02 2026.45 1388 2017.86L1387.19 2015.09C1384.06 2015.92 1381.35 2016.58 1378.21 2017.3L1376.02 2010.61C1392.1 1994.7 1409.69 1983.36 1426.56 1969.66C1437.9 1960.44 1491.03 1930.87 1493.18 1922.54C1657.65 1839.26 1783.93 1836.78 1963.5 1832C2000.59 1824.8 2173.52 1831.26 2186.39 1822.13C2191.11 1815.63 2190.8 1814.98 2191.01 1806.57C2194.99 1812.8 2190 1847.03 2191.77 1860.95C2192.12 1866.65 2192.48 1872.01 2193.06 1877.71C2196.1 1877.08 2194.75 1877.73 2197.14 1875.8C2197.49 1847.26 2243.65 1846.98 2254.94 1832.01C2269.03 1813.32 2285.3 1793.65 2298.03 1773.94C2301.47 1768.61 2299.44 1767.07 2297.21 1760.94C2300.61 1755.57 2304.57 1757.95 2313.15 1752.23C2309.78 1748.8 2310.35 1749.55 2307.83 1745.91C2312.09 1740.64 2314.6 1741.09 2321.94 1738.22C2321.38 1740.08 2325.5 1724.92 2323.83 1729.63C2328.54 1716.32 2367.49 1701.12 2378.36 1690.24C2388.26 1680.33 2399.7 1667.86 2406.65 1657.38C2415.4 1642.68 2427.89 1644.23 2437.91 1630.21C2460.65 1598.41 2480.88 1573.12 2492.37 1534.92C2494.73 1527.09 2484.77 1511.4 2491.91 1503.66L2497.78 1506.64C2499.69 1491.5 2466.39 1453.15 2467.46 1439.76Z"/><defs><linearGradient id="gradient_1" gradientUnits="userSpaceOnUse" x1="1354.3331" y1="2104.6777" x2="1941.1337" y2="2141.408"><stop offset="0" stop-color="#952B6A"/><stop offset="1" stop-color="#FA5395"/></linearGradient></defs><path fill="url(#gradient_1)" d="M1493.18 1922.54C1657.65 1839.26 1783.93 1836.78 1963.5 1832C1987.49 1834.35 2015.23 1832.15 2039.96 1832.97C1958.36 1840.19 1882.55 1853.98 1826.15 1920.06C1763.73 1993.18 1735.71 2127 1733.25 2222.49C1731.77 2231.7 1731.67 2236.07 1731.46 2245.49L1728.14 2247.38C1691.12 2239.54 1566.05 2277.46 1531.97 2301.44C1521.68 2308.68 1499.07 2326.57 1489.7 2331.45C1456.18 2351.89 1435.2 2381.07 1408.48 2405.64C1403.24 2406.54 1403.47 2407.02 1399.38 2410.64L1395.57 2410.09C1395.05 2405.01 1400.5 2399.13 1397.86 2395.02C1377.48 2363.28 1397.56 2349.95 1396.13 2316.76C1396.71 2303.78 1387.84 2296.06 1384.16 2285.11C1377.84 2266.31 1381.95 2227.25 1364.59 2214.98L1361.51 2216.03L1359.24 2222.83C1355.8 2207.38 1363.21 2187.38 1359.5 2177.48L1354.98 2189.8L1353.48 2189.37C1351.67 2167.82 1356.09 2145.18 1354.64 2123.39C1353.29 2103.23 1359.26 2114.44 1360.67 2108.24C1363.88 2094.11 1377.12 2062.64 1382.48 2050.27L1381.78 2046.44C1384.33 2041.41 1385.67 2040.68 1389.54 2036.51C1387.56 2034.77 1385.97 2033.5 1383.91 2031.87C1382.78 2022.7 1382.02 2026.45 1388 2017.86L1387.19 2015.09C1384.06 2015.92 1381.35 2016.58 1378.21 2017.3L1376.02 2010.61C1392.1 1994.7 1409.69 1983.36 1426.56 1969.66C1437.9 1960.44 1491.03 1930.87 1493.18 1922.54Z"/><defs><linearGradient id="gradient_2" gradientUnits="userSpaceOnUse" x1="1907.4658" y1="1861.5358" x2="2076.7766" y2="2159.624"><stop offset="0" stop-color="#44133A"/><stop offset="1" stop-color="#681B47"/></linearGradient></defs><path fill="url(#gradient_2)" d="M2191.01 1806.57C2194.99 1812.8 2190 1847.03 2191.77 1860.95C2192.12 1866.65 2192.48 1872.01 2193.06 1877.71C2196.1 1877.08 2194.75 1877.73 2197.14 1875.8C2181.51 1996.11 2152.79 2097.69 2052.41 2177.75C2031.46 2194.46 2002.09 2211.66 1975.8 2217.93C1965.05 2221.8 1922.57 2232.94 1913.19 2230.55L1913.77 2228.73L1921.03 2226.19C1913.19 2225.18 1897.72 2222.23 1891.02 2223.91L1889.87 2227.8C1851.89 2226.41 1811.83 2195.81 1786.27 2169.45C1767.65 2150.24 1755.79 2123.41 1755.8 2096.49L1754.41 2095.17C1740.89 2127.12 1741.93 2223.31 1734.95 2237.62C1732.29 2233.03 1733.33 2228.7 1733.25 2222.49C1735.71 2127 1763.73 1993.18 1826.15 1920.06C1882.55 1853.98 1958.36 1840.19 2039.96 1832.97C2015.23 1832.15 1987.49 1834.35 1963.5 1832C2000.59 1824.8 2173.52 1831.26 2186.39 1822.13C2191.11 1815.63 2190.8 1814.98 2191.01 1806.57Z"/><path fill="#B7316B" d="M1975.8 2217.93C1984.56 2213.28 1994 2209.63 2002.9 2205.1C2106.98 2152.11 2166.32 2044.8 2184.36 1932.47C2188.31 1907.84 2189.27 1885.46 2191.77 1860.95C2192.12 1866.65 2192.48 1872.01 2193.06 1877.71C2196.1 1877.08 2194.75 1877.73 2197.14 1875.8C2181.51 1996.11 2152.79 2097.69 2052.41 2177.75C2031.46 2194.46 2002.09 2211.66 1975.8 2217.93Z"/><defs><linearGradient id="gradient_3" gradientUnits="userSpaceOnUse" x1="2450.5874" y1="1942.3942" x2="2734.3125" y2="2120.1697"><stop offset="0" stop-color="#121034"/><stop offset="1" stop-color="#522B51"/></linearGradient></defs><path fill="url(#gradient_3)" d="M2530.3 1851.69C2554.56 1856.61 2597.2 1857.38 2618.03 1860.18C2649.37 1864.4 2868.71 1893.53 2879.58 1907.13C2879.12 1908.55 2830.44 1952.28 2823.22 1959.76C2806.19 1977.35 2789.72 1995.48 2773.84 2014.12C2732.49 2063.24 2666.95 2149.59 2617.32 2194.5C2612.2 2199.13 2559.92 2183.01 2547.02 2180.74C2466 2166.23 2383.52 2161.57 2301.38 2166.86L2300.84 2162.92C2317.51 2151.67 2333.79 2139.85 2349.64 2127.47C2421.66 2071.17 2477.48 1996.79 2511.4 1911.91C2517.67 1896.5 2528.35 1867.86 2530.3 1851.69Z"/><path fill="#CC457C" d="M1772.7 1157.6C1894.51 1141.53 2068.01 1158.21 2180.13 1206.79C2190.04 1211.08 2223.46 1224.4 2231.59 1229.28L2233.12 1230.23C2252.51 1242.13 2274.19 1252.82 2294.8 1264.93C2350.37 1297.57 2439.93 1381.49 2467.46 1439.76C2466.39 1453.15 2499.69 1491.5 2497.78 1506.64L2491.91 1503.66C2484.77 1511.4 2494.73 1527.09 2492.37 1534.92C2480.88 1573.12 2460.65 1598.41 2437.91 1630.21C2427.89 1644.23 2415.4 1642.68 2406.65 1657.38C2399.7 1667.86 2388.26 1680.33 2378.36 1690.24C2367.49 1701.12 2328.54 1716.32 2323.83 1729.63C2325.5 1724.92 2321.38 1740.08 2321.94 1738.22C2314.6 1741.09 2312.09 1740.64 2307.83 1745.91C2310.35 1749.55 2309.78 1748.8 2313.15 1752.23C2304.57 1757.95 2300.61 1755.57 2297.21 1760.94C2299.44 1767.07 2301.47 1768.61 2298.03 1773.94C2285.3 1793.65 2269.03 1813.32 2254.94 1832.01C2243.65 1846.98 2197.49 1847.26 2197.14 1875.8C2194.75 1877.73 2196.1 1877.08 2193.06 1877.71C2192.48 1872.01 2192.12 1866.65 2191.77 1860.95C2190 1847.03 2194.99 1812.8 2191.01 1806.57C2185.85 1780.29 2183.16 1757.81 2175.81 1731.14C2114.89 1509.99 1891.84 1457.58 1690.42 1513.5C1632.48 1531.99 1539.93 1564.59 1494.06 1605.64C1474.49 1620.71 1455.26 1636.22 1436.39 1652.14C1439.03 1630.2 1445.69 1613.91 1449.83 1592.89C1451.81 1582.8 1437.41 1574.22 1447.39 1560.8C1448.33 1551.42 1443.81 1546.34 1438.84 1537.34L1440.22 1532.6C1455.49 1519.98 1447.38 1514.75 1448 1496.16C1448.53 1480.41 1447.29 1465.18 1444.76 1449.65L1444.69 1452.89C1442.83 1442.77 1439.04 1385.95 1441.76 1375.64C1445.23 1362.45 1464.66 1346.61 1459.51 1326.21C1456.18 1312.99 1454.09 1306.98 1454.35 1295.19L1454.43 1292.12C1462.99 1279.31 1478.95 1268.74 1483.52 1259.08L1478.81 1259.45L1475.81 1255.81C1555.16 1204.84 1678.15 1163.47 1772.7 1157.6Z"/><path fill="#6A416B" d="M1475.81 1255.81C1555.16 1204.84 1678.15 1163.47 1772.7 1157.6L1769.1 1158.97C1739.54 1169.93 1593.87 1195.01 1583.4 1217.97C1574.23 1238.1 1575.59 1268.82 1572.27 1290.97C1569.32 1310.71 1581.05 1324.99 1573.03 1344.94C1570.58 1351.04 1562.82 1361.82 1565.01 1367.68C1566.18 1370.8 1566.93 1373.56 1567.56 1376.8C1563.17 1379.77 1557.21 1374.63 1556.16 1388.63C1553.08 1429.9 1559.4 1461.99 1548.77 1503.89C1547.82 1507.66 1565.49 1541.52 1551.1 1559.46C1561.33 1556.12 1575.8 1546.48 1586.06 1541.83C1611.83 1530.14 1662.03 1510.32 1690.42 1513.5C1632.48 1531.99 1539.93 1564.59 1494.06 1605.64C1474.49 1620.71 1455.26 1636.22 1436.39 1652.14C1439.03 1630.2 1445.69 1613.91 1449.83 1592.89C1451.81 1582.8 1437.41 1574.22 1447.39 1560.8C1448.33 1551.42 1443.81 1546.34 1438.84 1537.34L1440.22 1532.6C1455.49 1519.98 1447.38 1514.75 1448 1496.16C1448.53 1480.41 1447.29 1465.18 1444.76 1449.65L1444.69 1452.89C1442.83 1442.77 1439.04 1385.95 1441.76 1375.64C1445.23 1362.45 1464.66 1346.61 1459.51 1326.21C1456.18 1312.99 1454.09 1306.98 1454.35 1295.19L1454.43 1292.12C1462.99 1279.31 1478.95 1268.74 1483.52 1259.08L1478.81 1259.45L1475.81 1255.81Z"/><defs><linearGradient id="gradient_4" gradientUnits="userSpaceOnUse" x1="2168.7734" y1="2244.0012" x2="2637.6709" y2="2757.1633"><stop offset="0" stop-color="#301B44"/><stop offset="1" stop-color="#892A5F"/></linearGradient></defs><path fill="url(#gradient_4)" d="M2135.92 2529.76C2158.59 2544.24 2178.49 2556.21 2204.11 2566.13C2292.08 2600.2 2402.08 2602.89 2494.22 2583.7C2675.72 2545.91 2808.52 2432.96 2913.01 2284.41C2915.74 2280.53 2917.99 2270.88 2920.1 2267.88C2932.3 2250.57 2943.13 2232.6 2954.11 2214.58L2957.69 2215.51C2955.99 2229.26 2908.37 2315.77 2898.41 2334.43C2815.25 2490.23 2745.32 2688.5 2602.01 2799.85C2374.1 2976.93 2042.19 2909.94 1874.1 2683.71C1847.44 2647.84 1827.82 2618.09 1806.87 2578.42C1746.51 2447.7 1736.93 2387.35 1728.14 2247.38L1731.46 2245.49C1816.13 2248.75 1897.1 2253.02 1982.04 2251.03C1980.87 2264.96 1985.39 2279.97 1987.64 2293.76C2004.06 2394.12 2054.11 2470.52 2135.92 2529.76Z"/><defs><linearGradient id="gradient_5" gradientUnits="userSpaceOnUse" x1="1873.0803" y1="2220.3625" x2="1949.8536" y2="2570.2769"><stop offset="0" stop-color="#08082B"/><stop offset="1" stop-color="#341C44"/></linearGradient></defs><path fill="url(#gradient_5)" d="M1731.46 2245.49C1816.13 2248.75 1897.1 2253.02 1982.04 2251.03C1980.87 2264.96 1985.39 2279.97 1987.64 2293.76C2004.06 2394.12 2054.11 2470.52 2135.92 2529.76C2119.63 2531.77 2116.93 2526.47 2102.5 2515.65C2098.41 2522.3 2096.44 2524.7 2089.37 2527.96C2073.16 2529.09 2079.86 2508.03 2034.01 2525.53L2033.96 2525.01C2020.25 2532.53 2016.23 2543.35 2002.41 2546.07C1978.41 2550.8 1950.83 2578.18 1926.26 2572.16L1923.67 2573.09C1912.48 2576.97 1877.88 2586.76 1867.03 2581.29C1859.7 2577.6 1857.01 2573.52 1846.88 2572.59C1841.83 2575.3 1841.88 2576.27 1838.48 2581.1L1833.64 2579.23C1832.27 2581.32 1830.87 2583.4 1829.45 2585.46L1827.97 2583.42C1822.6 2576.14 1819.35 2570.61 1809.8 2569.35C1807.45 2574.32 1808.01 2572.99 1806.87 2578.42C1746.51 2447.7 1736.93 2387.35 1728.14 2247.38L1731.46 2245.49Z"/><defs><linearGradient id="gradient_6" gradientUnits="userSpaceOnUse" x1="1061.959" y1="2517.4319" x2="1424.4225" y2="2488.3772"><stop offset="0" stop-color="#3D1143"/><stop offset="1" stop-color="#992A6B"/></linearGradient></defs><path fill="url(#gradient_6)" d="M1378.21 2017.3C1381.35 2016.58 1384.06 2015.92 1387.19 2015.09L1388 2017.86C1382.02 2026.45 1382.78 2022.7 1383.91 2031.87C1385.97 2033.5 1387.56 2034.77 1389.54 2036.51C1385.67 2040.68 1384.33 2041.41 1381.78 2046.44L1382.48 2050.27C1377.12 2062.64 1363.88 2094.11 1360.67 2108.24C1359.26 2114.44 1353.29 2103.23 1354.64 2123.39C1356.09 2145.18 1351.67 2167.82 1353.48 2189.37L1354.98 2189.8L1359.5 2177.48C1363.21 2187.38 1355.8 2207.38 1359.24 2222.83L1361.51 2216.03L1364.59 2214.98C1381.95 2227.25 1377.84 2266.31 1384.16 2285.11C1387.84 2296.06 1396.71 2303.78 1396.13 2316.76C1397.56 2349.95 1377.48 2363.28 1397.86 2395.02C1400.5 2399.13 1395.05 2405.01 1395.57 2410.09L1399.38 2410.64C1403.47 2407.02 1403.24 2406.54 1408.48 2405.64C1435.2 2381.07 1456.18 2351.89 1489.7 2331.45C1484.5 2353.58 1484.53 2406.72 1482.75 2430.78C1475.84 2524.21 1478.54 2616.12 1478.57 2709.4L1482.26 2781.45C1483.65 2800.79 1491.49 2854.62 1486.44 2865.39C1481.35 2869.03 1478.22 2870.89 1471.06 2869.29C1446.39 2863.78 1427.4 2858.74 1402.14 2855L1361.25 2856.14C1338.93 2860.78 1311.7 2875.74 1291.63 2886.93C1251.72 2909.39 1212.65 2933.32 1174.52 2958.68C1153.46 2972.6 1121.23 2995.84 1100.23 3007.15L1095.65 3006.73C1089.76 2999.36 1091.61 2961.43 1091.04 2949.29C1082.84 2799.2 1093.3 2648.67 1122.17 2501.15C1125.53 2484.64 1134.32 2440.72 1140.33 2426.71C1149.15 2389.46 1169.39 2334.72 1182.85 2297.8C1208.88 2223.88 1260.88 2134.65 1312.61 2075.35C1321.6 2074.42 1363.66 2027.92 1378.21 2017.3Z"/><defs><linearGradient id="gradient_7" gradientUnits="userSpaceOnUse" x1="1246.3066" y1="2634.4399" x2="1470.208" y2="2790.5698"><stop offset="0" stop-color="#050828"/><stop offset="1" stop-color="#27143E"/></linearGradient></defs><path fill="url(#gradient_7)" d="M1408.48 2405.64C1435.2 2381.07 1456.18 2351.89 1489.7 2331.45C1484.5 2353.58 1484.53 2406.72 1482.75 2430.78C1475.84 2524.21 1478.54 2616.12 1478.57 2709.4L1482.26 2781.45C1483.65 2800.79 1491.49 2854.62 1486.44 2865.39C1481.35 2869.03 1478.22 2870.89 1471.06 2869.29C1446.39 2863.78 1427.4 2858.74 1402.14 2855L1361.25 2856.14C1338.93 2860.78 1311.7 2875.74 1291.63 2886.93C1251.72 2909.39 1212.65 2933.32 1174.52 2958.68C1153.46 2972.6 1121.23 2995.84 1100.23 3007.15C1106.27 2987 1115.39 2965.46 1123.11 2945.51C1177.15 2805.85 1236.81 2666.76 1313.51 2537.88C1333.53 2504.23 1358.19 2470.63 1380.88 2439.05L1379.4 2436.41C1381.18 2426.76 1389.07 2417.13 1395.57 2410.09L1399.38 2410.64C1403.47 2407.02 1403.24 2406.54 1408.48 2405.64Z"/><path fill="#29143E" d="M1482.26 2781.45C1483.65 2800.79 1491.49 2854.62 1486.44 2865.39C1481.35 2869.03 1478.22 2870.89 1471.06 2869.29C1446.39 2863.78 1427.4 2858.74 1402.14 2855C1395.06 2851.14 1393.51 2853.35 1386.28 2850.26C1415.39 2834.23 1451.67 2814.05 1481.41 2800.76L1482.26 2781.45Z"/><path fill="#110F2F" d="M1478.57 2709.4L1482.26 2781.45L1481.41 2800.76C1451.67 2814.05 1415.39 2834.23 1386.28 2850.26C1393.51 2853.35 1395.06 2851.14 1402.14 2855L1361.25 2856.14C1372.7 2835.06 1453.87 2800.44 1478.83 2790.72C1479 2767.16 1474.91 2730.85 1478.57 2709.4Z"/><path fill="#B7316B" d="M1395.57 2410.09L1399.38 2410.64C1403.47 2407.02 1403.24 2406.54 1408.48 2405.64C1399.25 2417.83 1390.97 2427.52 1380.88 2439.05L1379.4 2436.41C1381.18 2426.76 1389.07 2417.13 1395.57 2410.09Z"/><defs><linearGradient id="gradient_8" gradientUnits="userSpaceOnUse" x1="1120.8829" y1="1837.1434" x2="1499.8907" y2="1820.8232"><stop offset="0" stop-color="#1E1C3C"/><stop offset="1" stop-color="#673966"/></linearGradient></defs><path fill="url(#gradient_8)" d="M1270.15 1465.24C1286.07 1395.28 1291.3 1335.66 1272.56 1264.21C1267.31 1244.22 1252.93 1212.84 1250.42 1195.01C1257.67 1191.6 1281.2 1206.05 1290.86 1210.46C1344.52 1234.91 1402.72 1249.38 1459.92 1263.15C1465.41 1261.13 1470.54 1258.39 1475.81 1255.81L1478.81 1259.45L1483.52 1259.08C1478.95 1268.74 1462.99 1279.31 1454.43 1292.12L1454.35 1295.19C1454.09 1306.98 1456.18 1312.99 1459.51 1326.21C1464.66 1346.61 1445.23 1362.45 1441.76 1375.64C1439.04 1385.95 1442.83 1442.77 1444.69 1452.89L1444.76 1449.65C1447.29 1465.18 1448.53 1480.41 1448 1496.16C1447.38 1514.75 1455.49 1519.98 1440.22 1532.6L1438.84 1537.34C1443.81 1546.34 1448.33 1551.42 1447.39 1560.8C1437.41 1574.22 1451.81 1582.8 1449.83 1592.89C1445.69 1613.91 1439.03 1630.2 1436.39 1652.14C1455.26 1636.22 1474.49 1620.71 1494.06 1605.64C1494.5 1675.12 1494.58 1744.6 1494.3 1814.08C1494.12 1830.71 1490.75 1912.39 1493.18 1922.54C1491.03 1930.87 1437.9 1960.44 1426.56 1969.66C1409.69 1983.36 1392.1 1994.7 1376.02 2010.61L1378.21 2017.3C1363.66 2027.92 1321.6 2074.42 1312.61 2075.35C1260.88 2134.65 1208.88 2223.88 1182.85 2297.8C1169.39 2334.72 1149.15 2389.46 1140.33 2426.71C1139.07 2405.94 1137.54 2383.82 1137.14 2363.13C1131.84 2083.71 1115.28 1787.25 1236.92 1527.41C1246.13 1507.74 1260.02 1487.98 1268.56 1468.87L1270.15 1465.24Z"/><path fill="#110F2F" d="M1436.39 1652.14C1455.26 1636.22 1474.49 1620.71 1494.06 1605.64C1494.5 1675.12 1494.58 1744.6 1494.3 1814.08C1494.12 1830.71 1490.75 1912.39 1493.18 1922.54C1491.03 1930.87 1437.9 1960.44 1426.56 1969.66C1409.69 1983.36 1392.1 1994.7 1376.02 2010.61L1378.21 2017.3C1363.66 2027.92 1321.6 2074.42 1312.61 2075.35C1260.88 2134.65 1208.88 2223.88 1182.85 2297.8C1182.25 2296.65 1181.22 2294.92 1181.29 2293.63C1193.79 2076.78 1252.35 1840.58 1407.97 1680.48C1417.37 1670.8 1427.24 1662.06 1436.39 1652.14Z"/><path fill="#B7316B" d="M1312.61 2075.35C1333.85 2051.28 1351.66 2031.99 1376.02 2010.61L1378.21 2017.3C1363.66 2027.92 1321.6 2074.42 1312.61 2075.35Z"/><path fill="#6A416B" d="M1270.15 1465.24C1286.07 1395.28 1291.3 1335.66 1272.56 1264.21C1267.31 1244.22 1252.93 1212.84 1250.42 1195.01C1257.67 1191.6 1281.2 1206.05 1290.86 1210.46C1344.52 1234.91 1402.72 1249.38 1459.92 1263.15L1458.38 1266.09C1462.4 1266.38 1463.9 1265.69 1466.01 1267.5C1447.13 1280.95 1419.34 1300.86 1402.34 1315.06C1367.54 1344.14 1292.84 1427.88 1274.72 1467.7L1272 1468.54L1270.15 1465.24Z"/><defs><linearGradient id="gradient_9" gradientUnits="userSpaceOnUse" x1="2507.1743" y1="1432.6024" x2="2992.1685" y2="1295.1774"><stop offset="0" stop-color="#502E58"/><stop offset="1" stop-color="#B55788"/></linearGradient></defs><path fill="url(#gradient_9)" d="M2604.66 1248.32C2725.33 1247.78 2849.82 1249.07 2967.14 1216.53C2971.59 1215.3 2976.56 1216.43 2980.7 1218L2983.23 1221.67C2894.3 1330.11 2818.39 1455.77 2739.14 1571.23C2734.46 1578.04 2648.56 1565.84 2637.24 1564.35C2618.2 1562.93 2536.45 1553.55 2525.61 1561.02L2525.13 1565.96C2522.79 1561.71 2518.83 1545.14 2515.92 1538.44C2504.97 1513.3 2486.03 1457.26 2467.46 1439.76C2439.93 1381.49 2350.37 1297.57 2294.8 1264.93C2274.19 1252.82 2252.51 1242.13 2233.12 1230.23L2231.59 1229.28C2250.53 1234.37 2313.39 1236.16 2334.74 1237.28C2424.66 1242.21 2514.64 1245.89 2604.66 1248.32Z"/><defs><linearGradient id="gradient_10" gradientUnits="userSpaceOnUse" x1="2354.1318" y1="1427.9303" x2="2512.2988" y2="1351.2571"><stop offset="0" stop-color="#1D1C3B"/><stop offset="1" stop-color="#492D56"/></linearGradient></defs><path fill="url(#gradient_10)" d="M2231.59 1229.28C2250.53 1234.37 2313.39 1236.16 2334.74 1237.28C2424.66 1242.21 2514.64 1245.89 2604.66 1248.32C2563.57 1258.38 2499.18 1244.17 2457.74 1253.12C2461.86 1262.01 2471.89 1259.33 2473.08 1266.36C2473.86 1273.1 2465.36 1284.89 2471.57 1289.83C2486.95 1302.08 2484.44 1341.81 2493 1355.31C2511.29 1384.18 2526.34 1406.62 2537.73 1439.8C2542.69 1454.27 2554.86 1472.35 2560.56 1486.91C2568.17 1505.02 2571.92 1523 2581.83 1541.66L2580.04 1550.15C2598.57 1556.94 2617.84 1545.46 2637.24 1564.35C2618.2 1562.93 2536.45 1553.55 2525.61 1561.02L2525.13 1565.96C2522.79 1561.71 2518.83 1545.14 2515.92 1538.44C2504.97 1513.3 2486.03 1457.26 2467.46 1439.76C2439.93 1381.49 2350.37 1297.57 2294.8 1264.93C2274.19 1252.82 2252.51 1242.13 2233.12 1230.23L2231.59 1229.28Z"/></svg>